<svg width="1850" height="2953" viewBox="0 0 1850 2953" fill="none" xmlns="http://www.w3.org/2000/svg">
<path d="M608.808 2665.96C606.12 2665.96 603.528 2665.67 601.032 2665.1C598.536 2664.58 596.36 2663.94 594.504 2663.18C592.712 2662.34 591.336 2661.58 590.376 2660.87V2647.05H595.368L597 2656.94C598.344 2657.96 600.104 2658.82 602.28 2659.53C604.52 2660.17 606.6 2660.49 608.52 2660.49C613.448 2660.49 617 2659.56 619.176 2657.7C621.352 2655.78 622.44 2653.13 622.44 2649.74C622.44 2647.3 621.832 2645.35 620.616 2643.88C619.4 2642.41 617.768 2641.13 615.72 2640.04C613.736 2638.95 611.496 2637.93 609 2636.97C606.824 2636.14 604.648 2635.21 602.472 2634.18C600.296 2633.16 598.28 2631.98 596.424 2630.63C594.632 2629.29 593.192 2627.66 592.104 2625.74C591.016 2623.75 590.472 2621.42 590.472 2618.73C590.472 2615.21 591.304 2612.2 592.968 2609.7C594.632 2607.14 597 2605.16 600.072 2603.75C603.144 2602.34 606.76 2601.64 610.92 2601.64C613.032 2601.64 615.176 2601.77 617.352 2602.02C619.592 2602.28 621.608 2602.6 623.4 2602.98C625.192 2603.37 626.472 2603.72 627.24 2604.04V2618.44H622.536L620.616 2609.13C619.656 2608.62 618.28 2608.14 616.488 2607.69C614.696 2607.24 612.712 2607.02 610.536 2607.02C606.376 2607.02 603.24 2607.82 601.128 2609.42C599.08 2611.02 598.056 2613.35 598.056 2616.42C598.056 2619.11 598.76 2621.26 600.168 2622.86C601.64 2624.39 603.528 2625.67 605.832 2626.7C608.136 2627.66 610.536 2628.65 613.032 2629.67C615.976 2630.82 618.728 2632.1 621.288 2633.51C623.848 2634.86 625.928 2636.62 627.528 2638.79C629.128 2640.97 629.928 2643.82 629.928 2647.34C629.928 2650.73 629.32 2653.64 628.104 2656.07C626.888 2658.44 625.256 2660.36 623.208 2661.83C621.16 2663.24 618.888 2664.3 616.392 2665C613.896 2665.64 611.368 2665.96 608.808 2665.96ZM655.435 2665.86C650.699 2665.86 646.795 2664.87 643.723 2662.89C640.651 2660.84 638.379 2658.06 636.907 2654.54C635.435 2651.02 634.699 2647.05 634.699 2642.63C634.699 2637.38 635.595 2632.81 637.387 2628.9C639.243 2625 641.771 2621.99 644.971 2619.88C648.235 2617.7 651.979 2616.62 656.203 2616.62C659.019 2616.62 661.419 2617.1 663.403 2618.06C665.387 2619.02 666.987 2620.33 668.203 2621.99C669.483 2623.66 670.411 2625.54 670.987 2627.66C671.627 2629.7 671.947 2631.85 671.947 2634.09C671.947 2637.54 671.627 2639.85 670.987 2641C670.347 2642.09 669.131 2642.63 667.339 2642.63H643.243C643.243 2645.64 643.723 2648.39 644.683 2650.89C645.643 2653.38 647.211 2655.4 649.387 2656.94C651.627 2658.41 654.603 2659.14 658.315 2659.14C661.835 2659.14 664.555 2658.79 666.475 2658.09C668.459 2657.38 669.579 2656.97 669.835 2656.84L671.179 2659.53C670.987 2659.72 670.219 2660.33 668.875 2661.35C667.595 2662.38 665.803 2663.4 663.499 2664.42C661.259 2665.38 658.571 2665.86 655.435 2665.86ZM643.339 2638.22L663.883 2637.45C664.075 2636.3 664.171 2635.02 664.171 2633.61C664.171 2629.96 663.531 2627.14 662.251 2625.16C660.971 2623.18 658.507 2622.18 654.859 2622.18C652.235 2622.18 650.059 2622.82 648.331 2624.1C646.667 2625.32 645.419 2627.14 644.587 2629.58C643.819 2631.94 643.403 2634.82 643.339 2638.22ZM692.795 2665.38C690.043 2665.38 687.899 2664.94 686.363 2664.04C684.891 2663.14 683.867 2661.9 683.291 2660.3C682.715 2658.63 682.427 2656.78 682.427 2654.73V2622.66H674.939V2618.54L682.427 2616.52L684.731 2606.54H690.299V2617.48H703.835V2620.17L702.491 2622.66H690.299V2654.06C690.299 2656.04 690.683 2657.35 691.451 2657.99C692.283 2658.57 693.499 2658.86 695.099 2658.86C696.891 2658.86 698.523 2658.7 699.995 2658.38C701.467 2657.99 702.395 2657.74 702.779 2657.61L703.739 2660.68C702.203 2662.09 700.411 2663.24 698.363 2664.14C696.315 2664.97 694.459 2665.38 692.795 2665.38ZM732.246 2680.94C731.158 2680.94 729.942 2680.84 728.598 2680.65C727.254 2680.46 726.07 2680.23 725.046 2679.98V2676.52L736.374 2673.74L743.094 2657.61L744.054 2662.12L742.134 2665L725.526 2623.14L719.958 2621.61V2617.58H740.982V2621.8L734.55 2622.66V2624.1L744.342 2650.02L745.302 2653.38L746.166 2649.93L755.766 2624.1V2622.95L749.91 2621.9V2617.58H767.574V2621.51L762.198 2623.05L742.134 2675.46C741.43 2677.26 740.246 2678.6 738.582 2679.5C736.982 2680.46 734.87 2680.94 732.246 2680.94ZM784.9 2665.86C780.42 2665.86 776.676 2664.9 773.668 2662.98C770.66 2661.06 768.388 2658.31 766.852 2654.73C765.38 2651.14 764.644 2646.89 764.644 2641.96C764.644 2638.5 765.124 2635.27 766.084 2632.26C767.108 2629.19 768.548 2626.5 770.404 2624.2C772.324 2621.83 774.628 2619.98 777.316 2618.63C780.068 2617.29 783.14 2616.62 786.532 2616.62C791.14 2616.62 794.98 2617.58 798.052 2619.5C801.124 2621.35 803.396 2624.01 804.868 2627.46C806.404 2630.92 807.172 2635.02 807.172 2639.75C807.172 2643.46 806.692 2646.92 805.732 2650.12C804.836 2653.26 803.46 2656.01 801.604 2658.38C799.748 2660.74 797.412 2662.6 794.596 2663.94C791.844 2665.22 788.612 2665.86 784.9 2665.86ZM786.724 2660.3C789.796 2660.3 792.196 2659.56 793.924 2658.09C795.652 2656.55 796.868 2654.38 797.572 2651.56C798.276 2648.74 798.628 2645.38 798.628 2641.48C798.628 2637 798.244 2633.35 797.476 2630.54C796.708 2627.66 795.428 2625.54 793.636 2624.2C791.844 2622.86 789.316 2622.18 786.052 2622.18C782.468 2622.18 779.748 2622.92 777.892 2624.39C776.036 2625.8 774.788 2627.94 774.148 2630.82C773.572 2633.64 773.284 2637.19 773.284 2641.48C773.284 2645.45 773.668 2648.84 774.436 2651.66C775.204 2654.47 776.548 2656.62 778.468 2658.09C780.452 2659.56 783.204 2660.3 786.724 2660.3ZM830.794 2665.86C826.25 2665.86 822.762 2664.74 820.33 2662.5C817.898 2660.2 816.682 2656.9 816.682 2652.62V2624.3L808.714 2622.95V2619.3L821.866 2616.62L824.554 2617.96V2648.49C824.554 2652.65 825.29 2655.56 826.762 2657.22C828.234 2658.82 830.986 2659.62 835.018 2659.62C836.362 2659.62 837.898 2659.37 839.626 2658.86C841.418 2658.28 842.986 2657.61 844.33 2656.84V2624.3L836.458 2622.95V2619.3L849.61 2616.62L852.298 2617.96V2658.18L859.114 2659.72V2663.37L845.962 2665.29L844.426 2660.49L844.234 2660.58C842.762 2662.12 840.778 2663.4 838.282 2664.42C835.85 2665.38 833.354 2665.86 830.794 2665.86ZM863.016 2665V2661.06L869.544 2659.72V2625.06L862.056 2623.72V2619.78L875.88 2617.1L877.512 2622.47C877.832 2622.15 878.568 2621.54 879.72 2620.65C880.936 2619.69 882.312 2618.79 883.848 2617.96C885.448 2617.06 886.92 2616.62 888.264 2616.62C889.608 2616.62 890.632 2617.06 891.336 2617.96C892.104 2618.79 892.488 2619.91 892.488 2621.32C892.488 2622.41 892.232 2623.37 891.72 2624.2C891.272 2625.03 890.568 2625.77 889.608 2626.41L885.576 2625.35C884.808 2625.16 884.136 2625.03 883.56 2624.97C882.984 2624.84 882.344 2624.78 881.64 2624.78C880.936 2624.78 880.2 2624.84 879.432 2624.97C878.664 2625.1 877.992 2625.29 877.416 2625.54V2659.62L886.248 2660.87V2665H863.016ZM929.699 2680.94C926.499 2680.94 923.491 2680.58 920.675 2679.88C917.859 2679.18 915.587 2678.02 913.859 2676.42C912.195 2674.89 911.363 2672.84 911.363 2670.28C911.363 2668.62 911.747 2667.11 912.515 2665.77C913.283 2664.49 914.275 2663.37 915.491 2662.41C916.707 2661.38 917.923 2660.52 919.139 2659.82C920.419 2659.11 921.475 2658.5 922.307 2657.99C921.859 2657.54 921.411 2656.9 920.963 2656.07C920.579 2655.24 920.387 2654.34 920.387 2653.38C920.387 2651.98 920.835 2650.7 921.731 2649.54C922.627 2648.39 923.619 2647.46 924.707 2646.76C921.955 2646.12 919.715 2645.13 917.987 2643.78C916.259 2642.38 914.979 2640.71 914.147 2638.79C913.379 2636.87 912.995 2634.95 912.995 2633.03C912.995 2629.83 913.795 2627.02 915.395 2624.58C916.995 2622.09 919.171 2620.14 921.923 2618.73C924.739 2617.32 927.875 2616.62 931.331 2616.62C933.571 2616.62 935.587 2616.9 937.379 2617.48C939.235 2617.99 940.739 2618.7 941.891 2619.59C942.083 2619.46 942.595 2619.08 943.427 2618.44C944.323 2617.74 945.379 2617.1 946.595 2616.52C947.811 2615.88 949.027 2615.56 950.243 2615.56C951.587 2615.56 952.611 2615.91 953.315 2616.62C954.083 2617.26 954.467 2618.28 954.467 2619.69C954.467 2620.71 954.243 2621.61 953.795 2622.38C953.347 2623.08 952.995 2623.59 952.739 2623.91L949.091 2622.95C948.131 2622.7 947.363 2622.5 946.787 2622.38C946.211 2622.25 945.475 2622.18 944.579 2622.18C945.667 2623.59 946.435 2625.16 946.883 2626.89C947.395 2628.62 947.651 2630.22 947.651 2631.69C947.651 2634.82 946.819 2637.54 945.155 2639.85C943.491 2642.15 941.283 2643.94 938.531 2645.22C935.843 2646.5 932.899 2647.14 929.699 2647.14H928.451V2652.81L938.531 2654.73C941.411 2655.24 943.875 2655.91 945.923 2656.74C948.035 2657.58 949.667 2658.73 950.819 2660.2C952.035 2661.61 952.643 2663.46 952.643 2665.77C952.643 2668.14 952.035 2670.25 950.819 2672.1C949.603 2673.96 947.939 2675.53 945.827 2676.81C943.715 2678.15 941.283 2679.18 938.531 2679.88C935.779 2680.58 932.835 2680.94 929.699 2680.94ZM932.003 2675.94C934.563 2675.94 936.835 2675.66 938.819 2675.08C940.867 2674.5 942.467 2673.58 943.619 2672.3C944.835 2671.08 945.443 2669.61 945.443 2667.88C945.443 2666.6 945.027 2665.45 944.195 2664.42C943.363 2663.34 941.539 2662.5 938.723 2661.93L925.859 2659.43C924.195 2660.46 922.691 2661.9 921.347 2663.75C920.067 2665.54 919.427 2667.3 919.427 2669.03C919.427 2671.46 920.419 2673.22 922.403 2674.31C924.387 2675.4 927.587 2675.94 932.003 2675.94ZM930.467 2641.67C932.451 2641.67 934.115 2641.38 935.459 2640.81C936.867 2640.23 937.955 2639.24 938.723 2637.83C939.491 2636.36 939.875 2634.31 939.875 2631.69C939.875 2629.58 939.555 2627.82 938.915 2626.41C938.339 2625 937.379 2623.94 936.035 2623.24C934.755 2622.47 932.963 2622.09 930.659 2622.09C928.227 2622.09 926.307 2622.44 924.899 2623.14C923.491 2623.85 922.467 2624.97 921.827 2626.5C921.251 2627.98 920.963 2629.9 920.963 2632.26C920.963 2634.57 921.283 2636.42 921.923 2637.83C922.627 2639.18 923.683 2640.17 925.091 2640.81C926.563 2641.38 928.355 2641.67 930.467 2641.67ZM974.237 2665.86C969.757 2665.86 966.013 2664.9 963.005 2662.98C959.997 2661.06 957.725 2658.31 956.189 2654.73C954.717 2651.14 953.981 2646.89 953.981 2641.96C953.981 2638.5 954.461 2635.27 955.421 2632.26C956.445 2629.19 957.885 2626.5 959.741 2624.2C961.661 2621.83 963.965 2619.98 966.653 2618.63C969.405 2617.29 972.477 2616.62 975.869 2616.62C980.477 2616.62 984.317 2617.58 987.389 2619.5C990.461 2621.35 992.733 2624.01 994.205 2627.46C995.741 2630.92 996.509 2635.02 996.509 2639.75C996.509 2643.46 996.029 2646.92 995.069 2650.12C994.173 2653.26 992.797 2656.01 990.941 2658.38C989.085 2660.74 986.749 2662.6 983.933 2663.94C981.181 2665.22 977.949 2665.86 974.237 2665.86ZM976.061 2660.3C979.133 2660.3 981.533 2659.56 983.261 2658.09C984.989 2656.55 986.205 2654.38 986.909 2651.56C987.613 2648.74 987.965 2645.38 987.965 2641.48C987.965 2637 987.581 2633.35 986.813 2630.54C986.045 2627.66 984.765 2625.54 982.973 2624.2C981.181 2622.86 978.653 2622.18 975.389 2622.18C971.805 2622.18 969.085 2622.92 967.229 2624.39C965.373 2625.8 964.125 2627.94 963.485 2630.82C962.909 2633.64 962.621 2637.19 962.621 2641.48C962.621 2645.45 963.005 2648.84 963.773 2651.66C964.541 2654.47 965.885 2656.62 967.805 2658.09C969.789 2659.56 972.541 2660.3 976.061 2660.3ZM1014.37 2665.67C1011.11 2665.67 1008.48 2665.13 1006.5 2664.04C1004.58 2662.95 1003.17 2661.51 1002.28 2659.72C1001.44 2657.86 1001.03 2655.88 1001.03 2653.77C1001.03 2651.08 1001.64 2648.74 1002.85 2646.76C1004.13 2644.78 1006.05 2643.14 1008.61 2641.86C1011.17 2640.58 1014.37 2639.72 1018.21 2639.27L1026.85 2638.02V2630.82C1026.85 2628.97 1026.47 2627.43 1025.7 2626.22C1025 2625 1023.94 2624.14 1022.53 2623.62C1021.19 2623.05 1019.49 2622.76 1017.44 2622.76C1015.84 2622.76 1014.5 2622.89 1013.41 2623.14C1012.32 2623.34 1011.68 2623.46 1011.49 2623.53L1010.05 2632.36C1009.99 2632.42 1009.73 2632.55 1009.28 2632.74C1008.84 2632.94 1008.07 2633.03 1006.98 2633.03C1005.89 2633.03 1004.87 2632.65 1003.91 2631.88C1003.01 2631.05 1002.56 2629.96 1002.56 2628.62C1002.56 2626.63 1003.3 2624.87 1004.77 2623.34C1006.31 2621.8 1008.16 2620.55 1010.34 2619.59C1012.52 2618.57 1014.69 2617.83 1016.87 2617.38C1019.04 2616.87 1020.8 2616.62 1022.15 2616.62C1024.9 2616.62 1027.2 2617.13 1029.06 2618.15C1030.92 2619.11 1032.32 2620.42 1033.28 2622.09C1034.24 2623.75 1034.72 2625.61 1034.72 2627.66V2658.47L1041.54 2659.82V2663.46C1041.35 2663.53 1040.84 2663.72 1040 2664.04C1039.24 2664.36 1038.18 2664.68 1036.84 2665C1035.56 2665.26 1034.05 2665.38 1032.32 2665.38C1030.53 2665.38 1029.28 2664.9 1028.58 2663.94C1027.94 2662.98 1027.56 2661.99 1027.43 2660.97H1027.04C1026.08 2661.74 1024.93 2662.47 1023.59 2663.18C1022.31 2663.88 1020.9 2664.49 1019.36 2665C1017.83 2665.45 1016.16 2665.67 1014.37 2665.67ZM1018.21 2659.62C1020.64 2659.62 1022.69 2659.34 1024.36 2658.76C1026.02 2658.12 1026.85 2657.8 1026.85 2657.8V2642.63C1022.88 2642.89 1019.62 2643.4 1017.06 2644.17C1014.5 2644.94 1012.58 2645.99 1011.3 2647.34C1010.08 2648.62 1009.48 2650.28 1009.48 2652.33C1009.48 2657.19 1012.39 2659.62 1018.21 2659.62ZM1043.41 2665V2661.06L1051.09 2659.72V2605.29L1043.41 2603.94V2600.01L1056.75 2597.9L1058.96 2598.76V2659.72L1066.45 2661.06V2665H1043.41ZM1086.74 2665V2661.06L1094.42 2659.72V2625.54L1086.74 2624.2V2620.26L1100.85 2617.58L1101.72 2621.32H1102.1C1104.72 2619.98 1107.44 2618.86 1110.26 2617.96C1113.14 2617.06 1115.51 2616.62 1117.36 2616.62C1121.46 2616.62 1124.56 2617.77 1126.68 2620.07C1128.85 2622.31 1129.94 2625.54 1129.94 2629.77V2659.72L1137.62 2661.06V2665H1114.58V2661.06L1122.07 2659.72V2631.11C1122.07 2628.3 1121.33 2626.31 1119.86 2625.16C1118.39 2623.94 1115.76 2623.34 1111.99 2623.34C1110.39 2623.34 1108.63 2623.46 1106.71 2623.72C1104.85 2623.91 1103.38 2624.17 1102.29 2624.49V2659.72L1109.68 2661.06V2665H1086.74ZM1160.29 2665.86C1155.81 2665.86 1152.07 2664.9 1149.06 2662.98C1146.05 2661.06 1143.78 2658.31 1142.25 2654.73C1140.77 2651.14 1140.04 2646.89 1140.04 2641.96C1140.04 2638.5 1140.52 2635.27 1141.48 2632.26C1142.5 2629.19 1143.94 2626.5 1145.8 2624.2C1147.72 2621.83 1150.02 2619.98 1152.71 2618.63C1155.46 2617.29 1158.53 2616.62 1161.93 2616.62C1166.53 2616.62 1170.37 2617.58 1173.45 2619.5C1176.52 2621.35 1178.79 2624.01 1180.26 2627.46C1181.8 2630.92 1182.57 2635.02 1182.57 2639.75C1182.57 2643.46 1182.09 2646.92 1181.13 2650.12C1180.23 2653.26 1178.85 2656.01 1177 2658.38C1175.14 2660.74 1172.81 2662.6 1169.99 2663.94C1167.24 2665.22 1164.01 2665.86 1160.29 2665.86ZM1162.12 2660.3C1165.19 2660.3 1167.59 2659.56 1169.32 2658.09C1171.05 2656.55 1172.26 2654.38 1172.97 2651.56C1173.67 2648.74 1174.02 2645.38 1174.02 2641.48C1174.02 2637 1173.64 2633.35 1172.87 2630.54C1172.1 2627.66 1170.82 2625.54 1169.03 2624.2C1167.24 2622.86 1164.71 2622.18 1161.45 2622.18C1157.86 2622.18 1155.14 2622.92 1153.29 2624.39C1151.43 2625.8 1150.18 2627.94 1149.54 2630.82C1148.97 2633.64 1148.68 2637.19 1148.68 2641.48C1148.68 2645.45 1149.06 2648.84 1149.83 2651.66C1150.6 2654.47 1151.94 2656.62 1153.86 2658.09C1155.85 2659.56 1158.6 2660.3 1162.12 2660.3ZM1202.06 2665.48L1186.89 2623.05L1181.32 2621.61V2617.58H1202.25V2621.8L1195.72 2622.86L1195.63 2624.01L1203.69 2648.2L1204.75 2652.52L1205.71 2648.1L1215.02 2617.58H1223.08L1232.4 2648.2L1233.36 2652.52L1234.22 2648.1L1241.61 2624.39V2622.86L1235.66 2621.8V2617.58H1253.32V2621.51L1247.85 2623.34L1234.03 2665.48H1230L1218 2627.27L1206 2665.48H1202.06ZM1256.02 2649.64L1252.75 2600.97C1253.01 2600.84 1253.49 2600.65 1254.19 2600.39C1254.9 2600.14 1256.02 2600.01 1257.55 2600.01C1258.96 2600.01 1260.02 2600.26 1260.72 2600.78C1261.49 2601.22 1261.97 2601.86 1262.16 2602.7C1262.42 2603.53 1262.54 2604.39 1262.54 2605.29C1262.54 2605.86 1262.51 2606.66 1262.45 2607.69C1262.45 2608.65 1262.38 2610.06 1262.26 2611.91C1262.19 2613.7 1262.06 2616.2 1261.87 2619.4C1261.74 2622.6 1261.52 2626.66 1261.2 2631.59C1260.94 2636.46 1260.62 2642.47 1260.24 2649.64H1256.02ZM1257.84 2666.06C1256.3 2666.06 1255.06 2665.54 1254.1 2664.52C1253.2 2663.43 1252.75 2662.06 1252.75 2660.39C1252.75 2658.79 1253.23 2657.38 1254.19 2656.17C1255.22 2654.95 1256.59 2654.34 1258.32 2654.34C1259.86 2654.34 1261.1 2654.86 1262.06 2655.88C1263.02 2656.84 1263.5 2658.18 1263.5 2659.91C1263.5 2661.45 1262.99 2662.86 1261.97 2664.14C1261.01 2665.42 1259.63 2666.06 1257.84 2666.06Z" fill="black"/>
<path d="M467.5 7.5C451 724.5 798.987 202.613 1413 354C2029.5 506 1774.33 1419.91 1283 1207C833 1012 7.00001 1129 7 1709C6.99999 2407.85 1163.73 2370.62 1550.5 2334.5C1880.52 2303.68 1997.2 2807.62 1550.5 2922.83C1424.66 2955.29 1254.1 2956.89 1031 2907" stroke="#00501E" stroke-width="13" stroke-linecap="square" stroke-dasharray="26 26"/>
</svg>
